<?xml version="1.0" encoding="UTF-8" standalone="no"?>
<!-- Created with Inkscape (http://www.inkscape.org/) -->

<svg
   xmlns:dc="http://purl.org/dc/elements/1.1/"
   xmlns:cc="http://creativecommons.org/ns#"
   xmlns:rdf="http://www.w3.org/1999/02/22-rdf-syntax-ns#"
   xmlns:svg="http://www.w3.org/2000/svg"
   xmlns="http://www.w3.org/2000/svg"
   xmlns:sodipodi="http://sodipodi.sourceforge.net/DTD/sodipodi-0.dtd"
   xmlns:inkscape="http://www.inkscape.org/namespaces/inkscape"
   width="134.76164"
   height="132.78958"
   id="svg2"
   version="1.1"
   inkscape:version="0.48.5 r10040"
   sodipodi:docname="app.svg">
  <defs
     id="defs4" />
  <sodipodi:namedview
     id="base"
     pagecolor="#ffffff"
     bordercolor="#666666"
     borderopacity="1.0"
     inkscape:pageopacity="0.0"
     inkscape:pageshadow="2"
     inkscape:zoom="3.959798"
     inkscape:cx="107.65245"
     inkscape:cy="68.3489"
     inkscape:document-units="px"
     inkscape:current-layer="layer1"
     showgrid="false"
     fit-margin-top="0"
     fit-margin-left="0"
     fit-margin-right="0"
     fit-margin-bottom="0"
     inkscape:window-width="1333"
     inkscape:window-height="841"
     inkscape:window-x="180"
     inkscape:window-y="207"
     inkscape:window-maximized="0" />
  <metadata
     id="metadata7">
    <rdf:RDF>
      <cc:Work
         rdf:about="">
        <dc:format>image/svg+xml</dc:format>
        <dc:type
           rdf:resource="http://purl.org/dc/dcmitype/StillImage" />
        <dc:title></dc:title>
      </cc:Work>
    </rdf:RDF>
  </metadata>
  <g
     inkscape:label="Ebene 1"
     inkscape:groupmode="layer"
     id="layer1"
     transform="translate(-146.59997,-327.45879)">
    <path
       style="fill:#ffffff"
       d="m 189.71492,458.01407 c -3.15498,-1.44056 -5.73633,-3.01372 -5.73633,-3.49591 0,-0.4822 1.32545,-2.38633 2.94545,-4.2314 2.72043,-3.0984 5.0434,-8.8141 5.0434,-12.40935 0,-3.95681 -2.47405,-9.37826 -7.13418,-15.63337 -6.28567,-8.43699 -8.82893,-13.93031 -9.83601,-21.24532 -2.39954,-17.42932 6.84496,-34.48176 22.7287,-41.92542 5.10298,-2.39144 6.93843,-2.69589 16.25264,-2.69589 9.31421,0 11.14966,0.30445 16.25264,2.69589 15.88374,7.44366 25.12824,24.4961 22.7287,41.92542 -1.00708,7.31501 -3.55034,12.80833 -9.83601,21.24532 -4.66013,6.25511 -7.13418,11.67656 -7.13418,15.63337 0,3.59525 2.32297,9.31095 5.0434,12.40935 1.62,1.84507 2.94545,3.7492 2.94545,4.2314 0,1.15066 -11.17354,6.24101 -12.48633,5.68842 -1.34557,-0.56639 -6.70877,-8.93738 -8.18759,-12.77933 -1.66575,-4.32759 -1.5857,-14.3126 0.16191,-20.19746 0.81892,-2.75759 4.19344,-8.75698 7.50478,-13.34236 6.5884,-9.12331 8.44344,-14.13143 7.77957,-21.00275 -1.24483,-12.88446 -11.74757,-22.3677 -24.77234,-22.3677 -13.32001,0 -23.65339,9.58553 -24.79266,22.99837 -0.59275,6.9785 0.86116,10.76364 7.85373,20.44663 3.27962,4.54146 6.63254,10.51197 7.45094,13.26781 1.74761,5.88486 1.82766,15.86987 0.16191,20.19746 -1.47882,3.84195 -6.84202,12.21294 -8.18759,12.77933 -0.55752,0.23467 -3.59502,-0.75196 -6.75,-2.19251 z m 63.23648,-14.01 c -4.69551,-4.69552 -4.11819,-7.98488 3.09369,-17.62666 11.95311,-15.98046 13.56713,-37.46257 4.20426,-55.95729 -3.19277,-6.30675 -15.1247,-18.20115 -21.84562,-21.7769 -10.65298,-5.66773 -25.85941,-7.36652 -37.89018,-4.2329 -16.97003,4.42013 -31.22297,18.43839 -37.07542,36.46494 -4.46997,13.76828 -0.89205,32.98046 8.47396,45.50215 4.92425,6.58338 6.0665,8.83901 6.0665,11.97971 0,3.36792 -4.32562,7.75764 -7.22991,7.33705 -2.98076,-0.43167 -12.73799,-12.27797 -16.63833,-20.20068 -10.01079,-20.33481 -10.01389,-40.16612 -0.009,-60.61608 3.36086,-6.8699 5.80946,-10.13164 12.76801,-17.00805 8.96034,-8.85458 16.12621,-13.36689 26.10968,-16.44113 3.025,-0.9315 6.5554,-2.2105 7.84533,-2.84223 3.06891,-1.50295 23.24043,-1.50295 26.30934,0 1.28993,0.63173 4.82033,1.91073 7.84533,2.84223 10.07346,3.10196 17.14485,7.56072 26.11855,16.46869 7.02171,6.97029 9.38898,10.14714 12.77678,17.14631 9.9767,20.61185 9.98289,40.11709 0.0191,60.35633 -3.35562,6.81624 -12.59865,18.70327 -15.92909,20.48567 -1.71268,0.91659 -2.51648,0.61494 -5.01258,-1.88116 z m -45.74774,-38.13086 c -3.76039,-2.29271 -5.22507,-5.4213 -5.22507,-11.1609 0,-3.25538 0.65686,-4.69176 3.4,-7.4349 4.96081,-4.96081 12.23919,-4.96081 17.2,0 2.77421,2.77421 3.4,4.16377 3.4,7.54966 0,10.65242 -9.88342,16.46729 -18.77493,11.04614 z"
       id="path2996"
       inkscape:connector-curvature="0" />
  </g>
</svg>
